<mxfile host="app.diagrams.net" agent="Mozilla/5.0 (Windows NT 10.0; Win64; x64) AppleWebKit/537.36 (KHTML, like Gecko) Chrome/134.0.0.0 Safari/537.36" version="26.1.1">
  <diagram name="Page-1" id="TH4sx-84aAAMV4N-GDxy">
    <mxGraphModel dx="1290" dy="609" grid="1" gridSize="10" guides="1" tooltips="1" connect="1" arrows="1" fold="1" page="1" pageScale="1" pageWidth="850" pageHeight="1100" math="0" shadow="0">
      <root>
        <mxCell id="0" />
        <mxCell id="1" parent="0" />
        <mxCell id="nSzqFxMRTiKcpk6UzPOw-3" value="" style="edgeStyle=orthogonalEdgeStyle;rounded=0;orthogonalLoop=1;jettySize=auto;html=1;" parent="1" source="nSzqFxMRTiKcpk6UzPOw-1" target="nSzqFxMRTiKcpk6UzPOw-2" edge="1">
          <mxGeometry relative="1" as="geometry" />
        </mxCell>
        <mxCell id="nSzqFxMRTiKcpk6UzPOw-1" value="Inicio" style="ellipse;whiteSpace=wrap;html=1;" parent="1" vertex="1">
          <mxGeometry x="70" y="20" width="100" height="50" as="geometry" />
        </mxCell>
        <mxCell id="nSzqFxMRTiKcpk6UzPOw-5" value="" style="edgeStyle=orthogonalEdgeStyle;rounded=0;orthogonalLoop=1;jettySize=auto;html=1;exitX=0.504;exitY=0.863;exitDx=0;exitDy=0;exitPerimeter=0;" parent="1" source="nSzqFxMRTiKcpk6UzPOw-2" target="nSzqFxMRTiKcpk6UzPOw-4" edge="1">
          <mxGeometry relative="1" as="geometry" />
        </mxCell>
        <mxCell id="nSzqFxMRTiKcpk6UzPOw-2" value="&quot;Ingrese el numero a invertir:\n&quot;" style="shape=document;whiteSpace=wrap;html=1;boundedLbl=1;" parent="1" vertex="1">
          <mxGeometry x="45" y="100" width="150" height="45" as="geometry" />
        </mxCell>
        <mxCell id="nSzqFxMRTiKcpk6UzPOw-7" value="" style="edgeStyle=orthogonalEdgeStyle;rounded=0;orthogonalLoop=1;jettySize=auto;html=1;" parent="1" source="nSzqFxMRTiKcpk6UzPOw-4" target="nSzqFxMRTiKcpk6UzPOw-6" edge="1">
          <mxGeometry relative="1" as="geometry" />
        </mxCell>
        <mxCell id="nSzqFxMRTiKcpk6UzPOw-4" value="num = validar_int_min(0);" style="whiteSpace=wrap;html=1;" parent="1" vertex="1">
          <mxGeometry x="45" y="170" width="150" height="22.5" as="geometry" />
        </mxCell>
        <mxCell id="Wdy0Pc1QJ6fUe6bUFeHO-2" value="" style="edgeStyle=orthogonalEdgeStyle;rounded=0;orthogonalLoop=1;jettySize=auto;html=1;exitX=0.5;exitY=0.828;exitDx=0;exitDy=0;exitPerimeter=0;" edge="1" parent="1" source="nSzqFxMRTiKcpk6UzPOw-6" target="Wdy0Pc1QJ6fUe6bUFeHO-1">
          <mxGeometry relative="1" as="geometry" />
        </mxCell>
        <mxCell id="nSzqFxMRTiKcpk6UzPOw-6" value="El numero inverso es: \n" style="shape=document;whiteSpace=wrap;html=1;boundedLbl=1;" parent="1" vertex="1">
          <mxGeometry x="50" y="220" width="140" height="36.25" as="geometry" />
        </mxCell>
        <mxCell id="nSzqFxMRTiKcpk6UzPOw-13" value="" style="edgeStyle=orthogonalEdgeStyle;rounded=0;orthogonalLoop=1;jettySize=auto;html=1;" parent="1" source="nSzqFxMRTiKcpk6UzPOw-10" target="nSzqFxMRTiKcpk6UzPOw-12" edge="1">
          <mxGeometry relative="1" as="geometry" />
        </mxCell>
        <mxCell id="nSzqFxMRTiKcpk6UzPOw-10" value="return 0" style="whiteSpace=wrap;html=1;" parent="1" vertex="1">
          <mxGeometry x="70" y="390" width="100" height="26.56" as="geometry" />
        </mxCell>
        <mxCell id="nSzqFxMRTiKcpk6UzPOw-12" value="Fin" style="ellipse;whiteSpace=wrap;html=1;" parent="1" vertex="1">
          <mxGeometry x="70" y="440" width="100" height="40" as="geometry" />
        </mxCell>
        <mxCell id="nSzqFxMRTiKcpk6UzPOw-16" value="" style="edgeStyle=orthogonalEdgeStyle;rounded=0;orthogonalLoop=1;jettySize=auto;html=1;" parent="1" source="nSzqFxMRTiKcpk6UzPOw-14" target="nSzqFxMRTiKcpk6UzPOw-15" edge="1">
          <mxGeometry relative="1" as="geometry" />
        </mxCell>
        <mxCell id="nSzqFxMRTiKcpk6UzPOw-14" value="invertir(int num, int aux)" style="shape=step;perimeter=stepPerimeter;whiteSpace=wrap;html=1;fixedSize=1;size=10;" parent="1" vertex="1">
          <mxGeometry x="345" y="33.59" width="150" height="22.81" as="geometry" />
        </mxCell>
        <mxCell id="Wdy0Pc1QJ6fUe6bUFeHO-8" value="" style="edgeStyle=orthogonalEdgeStyle;rounded=0;orthogonalLoop=1;jettySize=auto;html=1;" edge="1" parent="1" source="nSzqFxMRTiKcpk6UzPOw-15" target="Wdy0Pc1QJ6fUe6bUFeHO-7">
          <mxGeometry relative="1" as="geometry" />
        </mxCell>
        <mxCell id="nSzqFxMRTiKcpk6UzPOw-15" value="num == 0" style="rhombus;whiteSpace=wrap;html=1;" parent="1" vertex="1">
          <mxGeometry x="377.5" y="74.99" width="85" height="52.51" as="geometry" />
        </mxCell>
        <mxCell id="nSzqFxMRTiKcpk6UzPOw-33" value="" style="edgeStyle=orthogonalEdgeStyle;rounded=0;orthogonalLoop=1;jettySize=auto;html=1;" parent="1" source="nSzqFxMRTiKcpk6UzPOw-29" target="nSzqFxMRTiKcpk6UzPOw-32" edge="1">
          <mxGeometry relative="1" as="geometry" />
        </mxCell>
        <mxCell id="nSzqFxMRTiKcpk6UzPOw-29" value="return invertir(num/10)" style="whiteSpace=wrap;html=1;" parent="1" vertex="1">
          <mxGeometry x="350" y="207.5" width="140" height="25" as="geometry" />
        </mxCell>
        <mxCell id="nSzqFxMRTiKcpk6UzPOw-32" value="Fin" style="ellipse;whiteSpace=wrap;html=1;" parent="1" vertex="1">
          <mxGeometry x="377.5" y="247.5" width="85" height="40" as="geometry" />
        </mxCell>
        <mxCell id="Wdy0Pc1QJ6fUe6bUFeHO-4" value="" style="edgeStyle=orthogonalEdgeStyle;rounded=0;orthogonalLoop=1;jettySize=auto;html=1;" edge="1" parent="1" source="Wdy0Pc1QJ6fUe6bUFeHO-1" target="Wdy0Pc1QJ6fUe6bUFeHO-3">
          <mxGeometry relative="1" as="geometry" />
        </mxCell>
        <mxCell id="Wdy0Pc1QJ6fUe6bUFeHO-1" value="resultado = invertir(num, 0)" style="rounded=0;whiteSpace=wrap;html=1;" vertex="1" parent="1">
          <mxGeometry x="45" y="280" width="150" height="30" as="geometry" />
        </mxCell>
        <mxCell id="Wdy0Pc1QJ6fUe6bUFeHO-6" style="edgeStyle=orthogonalEdgeStyle;rounded=0;orthogonalLoop=1;jettySize=auto;html=1;entryX=0.5;entryY=0;entryDx=0;entryDy=0;exitX=0.505;exitY=0.829;exitDx=0;exitDy=0;exitPerimeter=0;" edge="1" parent="1" source="Wdy0Pc1QJ6fUe6bUFeHO-3" target="nSzqFxMRTiKcpk6UzPOw-10">
          <mxGeometry relative="1" as="geometry" />
        </mxCell>
        <mxCell id="Wdy0Pc1QJ6fUe6bUFeHO-3" value="&quot;%d&quot;, resultado" style="shape=document;whiteSpace=wrap;html=1;boundedLbl=1;rounded=0;" vertex="1" parent="1">
          <mxGeometry x="72.5" y="340" width="95" height="30" as="geometry" />
        </mxCell>
        <mxCell id="Wdy0Pc1QJ6fUe6bUFeHO-12" style="edgeStyle=orthogonalEdgeStyle;rounded=0;orthogonalLoop=1;jettySize=auto;html=1;entryX=0.5;entryY=0;entryDx=0;entryDy=0;" edge="1" parent="1" source="Wdy0Pc1QJ6fUe6bUFeHO-7" target="nSzqFxMRTiKcpk6UzPOw-29">
          <mxGeometry relative="1" as="geometry" />
        </mxCell>
        <mxCell id="Wdy0Pc1QJ6fUe6bUFeHO-7" value="return aux" style="whiteSpace=wrap;html=1;" vertex="1" parent="1">
          <mxGeometry x="385" y="147.5" width="70" height="23.75" as="geometry" />
        </mxCell>
        <mxCell id="Wdy0Pc1QJ6fUe6bUFeHO-11" value="" style="edgeStyle=orthogonalEdgeStyle;rounded=0;orthogonalLoop=1;jettySize=auto;html=1;exitX=1;exitY=0.5;exitDx=0;exitDy=0;" edge="1" parent="1" source="nSzqFxMRTiKcpk6UzPOw-15" target="Wdy0Pc1QJ6fUe6bUFeHO-10">
          <mxGeometry relative="1" as="geometry">
            <mxPoint x="420" y="187.5" as="targetPoint" />
            <mxPoint x="463" y="101.5" as="sourcePoint" />
            <Array as="points">
              <mxPoint x="505" y="101.5" />
              <mxPoint x="505" y="187.5" />
              <mxPoint x="425" y="187.5" />
            </Array>
          </mxGeometry>
        </mxCell>
        <mxCell id="Wdy0Pc1QJ6fUe6bUFeHO-10" value="" style="ellipse;whiteSpace=wrap;html=1;aspect=fixed;" vertex="1" parent="1">
          <mxGeometry x="415" y="180" width="10" height="10" as="geometry" />
        </mxCell>
      </root>
    </mxGraphModel>
  </diagram>
</mxfile>
